<?xml version="1.0" encoding="utf-8"?>
<!-- Generator: Adobe Illustrator 15.1.0, SVG Export Plug-In . SVG Version: 6.00 Build 0)  -->
<!DOCTYPE svg PUBLIC "-//W3C//DTD SVG 1.1//EN" "http://www.w3.org/Graphics/SVG/1.1/DTD/svg11.dtd">
<svg version="1.1" id="Layer_1" xmlns="http://www.w3.org/2000/svg" xmlns:xlink="http://www.w3.org/1999/xlink" x="0px" y="0px"
	 width="200px" height="200px" viewBox="0 0 200 200" enable-background="new 0 0 200 200" xml:space="preserve">
<g>
	<g>
		<path fill="#FFFFFF" d="M57.58,117.821c-0.595-1.377-1.568-2.502-2.895-3.345c-1.324-0.842-3.097-1.27-5.267-1.27
			c-2.329,0-4.251,0.57-5.717,1.693c-1.461,1.118-2.485,2.396-3.045,3.798l-0.069,0.176l3.371,1.071l0.061-0.151
			c0.383-0.974,1.02-1.791,1.895-2.43c0.87-0.634,2.019-0.954,3.415-0.954c1.785,0,3.151,0.434,4.064,1.287
			c0.907,0.85,1.37,2.153,1.37,3.87v4.876c0,1.934-0.64,3.53-1.902,4.749c-1.262,1.217-2.869,1.835-4.775,1.835
			c-1.302,0-2.395-0.336-3.248-0.999c-0.853-0.66-1.266-1.539-1.266-2.688c0-1.26,0.496-2.133,1.517-2.673
			c1.042-0.551,2.282-0.83,3.688-0.83h0.736c0.75,0,1.342-0.221,1.758-0.653c0.403-0.416,0.665-0.845,0.779-1.271
			s0.167-0.703,0.167-0.874v-0.175h-3.393c-2.288,0-4.344,0.519-6.113,1.541C40.91,125.447,40,127.107,40,129.34v0.274
			c0,1.915,0.7,3.514,2.081,4.753c1.375,1.234,3.208,1.861,5.451,1.861c2.993,0,5.423-1.288,7.228-3.829v0.159
			c0,0.906,0.327,1.688,0.97,2.332c0.645,0.644,1.428,0.972,2.332,0.972h0.176v-14.342c0-0.493-0.055-1.104-0.164-1.817
			C57.965,118.989,57.8,118.356,57.58,117.821z"/>
		<path fill="#FFFFFF" d="M82.718,118.301c-0.976-1.336-2.089-2.427-3.313-3.247c-1.374-0.919-3.077-1.387-5.066-1.387
			c-2.018,0-3.846,0.543-5.432,1.617c-1.582,1.07-2.824,2.502-3.69,4.251c-0.865,1.746-1.306,3.623-1.306,5.574
			c0,2.015,0.441,3.919,1.306,5.665c0.867,1.752,2.102,3.174,3.668,4.228c1.568,1.059,3.406,1.596,5.454,1.596
			c3.533,0,6.331-1.513,8.332-4.495v11.631c0,0.935,0.335,1.732,0.995,2.377c0.662,0.644,1.453,0.974,2.354,0.974h0.177v-33.049
			h-3.479V118.301z M78.958,132.295c-1.179,0.76-2.513,1.146-3.974,1.146c-1.491,0-2.821-0.378-3.949-1.122
			c-1.136-0.747-2.012-1.75-2.605-2.987c-0.599-1.242-0.904-2.631-0.904-4.132c0-1.56,0.305-2.996,0.904-4.27
			c0.596-1.266,1.461-2.279,2.58-3.009c1.116-0.729,2.453-1.098,3.974-1.098c1.461,0,2.789,0.386,3.95,1.143
			c1.166,0.764,2.097,1.793,2.77,3.063s1.014,2.627,1.014,4.032c0,1.468-0.334,2.863-0.992,4.15
			C81.067,130.497,80.138,131.534,78.958,132.295z"/>
		<path fill="#FFFFFF" d="M110.475,114.821c-0.66,0.645-0.995,1.443-0.995,2.378v9.381c0,1.908-0.604,3.523-1.791,4.801
			c-1.188,1.274-2.724,1.921-4.564,1.921c-1.899,0-3.371-0.589-4.373-1.754c-1.009-1.173-1.52-2.766-1.52-4.736v-9.612
			c0-0.933-0.328-1.73-0.97-2.376c-0.645-0.645-1.447-0.973-2.378-0.973h-0.176v13.742c0,2.671,0.743,4.852,2.208,6.485
			c1.466,1.64,3.568,2.473,6.245,2.473c3.159,0,5.634-1.338,7.366-3.971v3.558h3.478v-22.287h-0.175
			C111.927,113.851,111.133,114.178,110.475,114.821z"/>
		<path fill="#FFFFFF" d="M123.575,103.785c-0.32-0.063-0.544-0.095-0.678-0.095c-0.69,0-1.29,0.266-1.784,0.79
			c-0.488,0.521-0.736,1.15-0.736,1.868c0,0.659,0.243,1.234,0.718,1.71c0.473,0.476,1.031,0.733,1.648,0.763
			c0.09,0.008,0.178,0.014,0.264,0.014c0.642,0,1.218-0.221,1.708-0.653c0.559-0.492,0.843-1.125,0.843-1.88
			c0-0.589-0.192-1.129-0.566-1.603C124.613,104.224,124.141,103.918,123.575,103.785z"/>
		<path fill="#FFFFFF" d="M121.16,136.229h0.174c0.934,0,1.741-0.342,2.402-1.019c0.659-0.675,0.992-1.488,0.992-2.422v-18.845
			h-3.568V136.229z"/>
		<rect x="132.424" y="102.402" fill="#FFFFFF" width="3.616" height="33.826"/>
		<path fill="#FFFFFF" d="M159.697,119.703c-0.11-0.715-0.277-1.348-0.496-1.882c-0.595-1.376-1.567-2.502-2.896-3.345
			c-1.324-0.842-3.097-1.27-5.266-1.27c-2.329,0-4.253,0.57-5.719,1.693c-1.458,1.116-2.483,2.396-3.044,3.798l-0.07,0.176
			l3.372,1.071l0.059-0.151c0.384-0.974,1.021-1.791,1.896-2.43c0.869-0.634,2.018-0.954,3.412-0.954
			c1.784,0,3.153,0.434,4.065,1.287c0.909,0.85,1.369,2.153,1.369,3.87v4.876c0,1.934-0.639,3.53-1.9,4.749
			c-1.262,1.217-2.87,1.835-4.775,1.835c-1.302,0-2.395-0.336-3.248-0.999c-0.853-0.66-1.266-1.539-1.266-2.688
			c0-1.26,0.495-2.133,1.515-2.673c1.043-0.551,2.283-0.83,3.689-0.83h0.735c0.753,0,1.344-0.221,1.761-0.653
			c0.4-0.417,0.662-0.846,0.776-1.271c0.113-0.416,0.168-0.701,0.168-0.874v-0.175h-3.396c-2.287,0-4.342,0.519-6.111,1.541
			c-1.797,1.042-2.709,2.702-2.709,4.935v0.274c0,1.914,0.701,3.513,2.082,4.753c1.374,1.234,3.209,1.861,5.451,1.861
			c2.993,0,5.423-1.288,7.228-3.829v0.159c0,0.903,0.327,1.688,0.972,2.332c0.646,0.644,1.43,0.972,2.332,0.972h0.175v-14.342
			C159.859,121.029,159.807,120.434,159.697,119.703z"/>
	</g>
	<circle fill="#FFFFFF" cx="99.431" cy="63.764" r="27.931"/>
	<path fill="#455166" d="M99.387,35.72c-15.478,0-28.028,12.548-28.028,28.027c0,11.312,6.701,21.056,16.351,25.484
		c2.748-1.569,5.575-4.022,7.662-7.546c3.234-5.465,5.074-16.674-5.632-17.678c-10.706-1.003,2.9-5.522,2.118-5.522
		c-0.78,0,13.942-6.022,18.849-3.902c4.906,2.119,13.049,7.584,12.603,12.489c-0.415,4.556-2.755,16.94-12.277,22.172
		c9.666-4.422,16.381-14.177,16.381-25.498C127.412,48.268,114.865,35.72,99.387,35.72z"/>
	<path fill="#7488A8" d="M114.752,64.284c0,0-12.527-2.214-20.968-1.771c-8.977,0.473-10.425,5.493-10.425,5.493
		s-0.688-5.474,1.616-9.095c2.304-3.623,6.525-4.726,6.525-4.726s2.827-5.983,11.004-6.929c9.179-1.063,15.762,2.833,15.762,2.833
		l-1.486,1.105c0,0,5.816,2.432,8.906,7.294c3.313,5.22,2.766,11.086,2.223,14.358c-0.619,3.741-3.629,8.093-3.629,8.093
		C122.475,73.992,114.752,64.284,114.752,64.284z"/>
	<path fill="#E4EBF7" d="M93.841,55.132c0,0,0.057,4.014,3.401,6.081c3.126,1.931,8.993,3.16,11.934,5.197
		c4.517,3.131,5.132,7.577,5.132,7.577l1.896-2.541c0,0,1.795,6.052-0.358,10.708c-2.089,4.521-4.446,6.982-9.475,8.707
		c0,0,6.372-1.006,12.938-7.443c5.877-5.763,5.703-9.86,4.254-13.109c-1.45-3.248-2.398-6.437-8.477-8.799
		c-6.079-2.363-10.092-3.012-13.66-3.544c-3.571-0.53-3.705,0.102-5.491-1.138C94.153,55.587,93.841,55.132,93.841,55.132z"/>
	<path fill="#BCCEEB" d="M120.242,58.24l-2.722,3.908c0,0-1.143-2.234-4.348-3.536c-3.032-1.23-7.268-1.197-12.655-1.244
		c-4.039-0.036-5.313-1.125-6.677-2.235c0,0,0.981,3.991,10.264,4.564c7.604,0.471,10.187,3.635,12.194,8.184l2.397-3.249
		c0,0,2.986,4.522,2.111,11.111c-1.609,12.106-14.438,15.119-14.438,15.119s7.133-1.181,12.923-7.213
		c2.828-2.947,3.975-5.117,3.975-5.117l1.011,2.409c0,0,2.839-7.13,0.927-13.956C123.486,60.846,120.242,58.24,120.242,58.24z"/>
	<path fill="#455166" d="M101.22,57.384c0,0,3.703-0.011,6.097,0.152c0,0-0.444,3.169-3.021,3.017
		C101.103,60.358,101.22,57.384,101.22,57.384z"/>
	<g>
		<rect x="93.847" y="143.713" fill="#7488A8" width="66.153" height="20.567"/>
		<g>
			<polygon fill="#FFFFFF" points="106.923,148.567 104.229,148.567 101.861,159.709 110.786,159.709 111.326,157.178 
				105.095,157.178 			"/>
			<polygon fill="#FFFFFF" points="116.466,159.709 119.16,159.709 121.529,148.567 118.835,148.567 			"/>
			<polygon fill="#FFFFFF" points="126.699,151.102 130.485,151.102 128.656,159.709 131.349,159.709 133.179,151.102 
				136.951,151.102 137.489,148.567 127.24,148.567 			"/>
			<polygon fill="#FFFFFF" points="152.153,151.102 152.693,148.567 143.228,148.567 140.86,159.709 150.397,159.709 
				150.937,157.178 144.078,157.178 144.494,155.21 150.51,155.21 151.048,152.675 145.034,152.675 145.368,151.102 			"/>
		</g>
	</g>
</g>
</svg>
